<svg width="57" height="56" viewBox="0 0 57 56" fill="none" xmlns="http://www.w3.org/2000/svg">
<path d="M28.1428 0C6.36504 0 0.142822 6.22222 0.142822 28C0.142822 49.7778 6.3806 56 28.1428 56C49.905 56 56.1428 49.7778 56.1428 28C56.1428 6.22222 49.905 0 28.1428 0Z" fill="#00AA45"/>
<path fill-rule="evenodd" clip-rule="evenodd" d="M7.39037 7.24755C3.73032 10.9076 2.14282 17.153 2.14282 28C2.14282 38.8461 3.7339 45.0918 7.39588 48.7521C11.0581 52.4127 17.304 54 28.1428 54C38.9816 54 45.2276 52.4127 48.8898 48.7521C52.5517 45.0918 54.1428 38.8461 54.1428 28C54.1428 17.1539 52.5517 10.9082 48.8898 7.24787C45.2276 3.58733 38.9816 2 28.1428 2C17.2958 2 11.0504 3.5875 7.39037 7.24755ZM0.142822 28C0.142822 6.22222 6.36505 0 28.1428 0C49.905 0 56.1428 6.22222 56.1428 28C56.1428 49.7778 49.905 56 28.1428 56C6.3806 56 0.142822 49.7778 0.142822 28Z" fill="#219653"/>
<path fill-rule="evenodd" clip-rule="evenodd" d="M27.2197 13H15.1428V47H24.5274V39.8889H27.2197C34.8733 39.8889 41.1428 33.9048 41.1428 26.4444C41.1428 18.984 34.8733 13 27.2197 13ZM24.5274 30.7778V22.1111H27.2197C29.7622 22.1111 31.7582 24.0864 31.7582 26.4444C31.7582 28.8024 29.7622 30.7778 27.2197 30.7778H24.5274Z" fill="#2E3036"/>
<path fill-rule="evenodd" clip-rule="evenodd" d="M18.1428 12H29.2197C36.357 12 42.1428 17.5716 42.1428 24.4444C42.1428 31.3173 36.357 36.8889 29.2197 36.8889H25.5274V44H18.1428V12ZM25.5274 29.7778H29.2197C32.2786 29.7778 34.7582 27.39 34.7582 24.4444C34.7582 21.4989 32.2786 19.1111 29.2197 19.1111H25.5274V29.7778Z" fill="white"/>
<path fill-rule="evenodd" clip-rule="evenodd" d="M17.1428 11H29.2197C36.8733 11 43.1428 16.984 43.1428 24.4444C43.1428 31.9048 36.8733 37.8889 29.2197 37.8889H26.5274V45H17.1428V11ZM19.1428 13V43H24.5274V35.8889H29.2197C35.8406 35.8889 41.1428 30.7298 41.1428 24.4444C41.1428 18.1591 35.8406 13 29.2197 13H19.1428ZM24.5274 18.1111H29.2197C32.7949 18.1111 35.7582 20.9114 35.7582 24.4444C35.7582 27.9775 32.7949 30.7778 29.2197 30.7778H24.5274V18.1111ZM26.5274 20.1111V28.7778H29.2197C31.7622 28.7778 33.7582 26.8024 33.7582 24.4444C33.7582 22.0864 31.7622 20.1111 29.2197 20.1111H26.5274Z" fill="#2E3036"/>
</svg>
